# xmcd CD database file
#
# Track frame offsets:
#	150
#	35481
#	64701
#	89805
#	107732
#	125959
#	149563
#	177573
#	200532
#	223300
#	256488
#
# Disc length: 3745 seconds
#
# Revision: 0
# Processed by: cddbd v1.5.1PL2 Copyright (c) Steve Scherf et al.
# Submitted via: CDex 1.51
#
DISCID=bc0e9f0b
DTITLE=Jessica Williams - More For Monk
DYEAR=2002
DGENRE=Jazz
TTITLE0=Functional
TTITLE1=Memories Of You
TTITLE2=Monk Funk
TTITLE3=Everything Happens To Me
TTITLE4=Out And Out Blues
TTITLE5=Pannonica
TTITLE6=Blues Five Spot
TTITLE7=Jackieing
TTITLE8=Don't Take Your Love From Me
TTITLE9=Blue TM
TTITLE10=Ghost Of A Chance
EXTD=YEAR: 2002
EXTT0=
EXTT1=
EXTT2=
EXTT3=
EXTT4=
EXTT5=
EXTT6=
EXTT7=
EXTT8=
EXTT9=
EXTT10=
PLAYORDER=
